<svg width="34" height="29" viewBox="0 0 34 29" fill="none" xmlns="http://www.w3.org/2000/svg">
<path d="M11.2199 16.2759C13.2174 16.2759 14.8182 17.6546 14.8182 19.3704V23.4896C14.8182 25.1934 13.2174 26.583 11.2199 26.583H6.43152C4.44819 26.583 2.83319 25.1934 2.83319 23.4896V19.3704C2.83319 17.6546 4.44819 16.2759 6.43152 16.2759H11.2199ZM27.5683 16.2759C29.5517 16.2759 31.1667 17.6546 31.1667 19.3704V23.4896C31.1667 25.1934 29.5517 26.583 27.5683 26.583H22.78C20.7825 26.583 19.1817 25.1934 19.1817 23.4896V19.3704C19.1817 17.6546 20.7825 16.2759 22.78 16.2759H27.5683ZM11.2199 2.41666C13.2174 2.41666 14.8182 3.80625 14.8182 5.51121V9.63041C14.8182 11.3462 13.2174 12.7237 11.2199 12.7237H6.43152C4.44819 12.7237 2.83319 11.3462 2.83319 9.63041V5.51121C2.83319 3.80625 4.44819 2.41666 6.43152 2.41666H11.2199ZM27.5683 2.41666C29.5517 2.41666 31.1667 3.80625 31.1667 5.51121V9.63041C31.1667 11.3462 29.5517 12.7237 27.5683 12.7237H22.78C20.7825 12.7237 19.1817 11.3462 19.1817 9.63041V5.51121C19.1817 3.80625 20.7825 2.41666 22.78 2.41666H27.5683Z" fill="black"/>
</svg>
