<svg width="28" height="24" viewBox="0 0 28 24" fill="none" xmlns="http://www.w3.org/2000/svg">
<g clip-path="url(#clip0_3_1222)">
<path d="M14 24C21.732 24 28 18.6274 28 12C28 5.37258 21.732 0 14 0C6.26801 0 0 5.37258 0 12C0 18.6274 6.26801 24 14 24Z" fill="#F0F0F0"/>
<path d="M14 0V12L4.10046 20.4853C6.63397 22.6568 10.134 24 14 24C21.7319 24 28 18.6274 28 12C28 5.37262 14 0 14 0Z" fill="#D80027"/>
<path d="M14 0C10.134 0 6.63397 1.34316 4.10046 3.51469C7.53539 6.45891 8.75475 7.50412 14 12H28C28 5.37262 21.7319 0 14 0Z" fill="#0052B4"/>
<path d="M9.58624 12L7.87648 11.3107L8.78698 9.89134L6.93034 10.1958L6.69507 8.58812L5.40182 9.77049L4.10863 8.58812L3.87331 10.1958L2.01672 9.89129L2.92721 11.3107L1.21741 12L2.92721 12.6894L2.01672 14.1087L3.87347 13.8043L4.10857 15.4119L5.40182 14.2295L6.69507 15.4119L6.93034 13.8043L8.78687 14.1087L7.87643 12.6894L9.58624 12Z" fill="#FFDA44"/>
<path d="M3.73369 4.69566L4.30266 5.37737L5.23481 5.12429L4.65414 5.79873L5.2231 6.48043L4.29528 6.21554L3.71466 6.88993L3.72193 6.0518L2.79416 5.78687L3.72647 5.53379L3.73369 4.69566Z" fill="#FFDA44"/>
<path d="M3.73369 17.1101L4.30266 17.7918L5.23481 17.5387L4.65414 18.2132L5.2231 18.8949L4.29528 18.63L3.71466 19.3044L3.72193 18.4662L2.79416 18.2013L3.72647 17.9482L3.73369 17.1101Z" fill="#FFDA44"/>
<path d="M11.8489 10.9029L11.28 11.5846L10.3478 11.3314L10.9285 12.0059L10.3595 12.6877L11.2873 12.4227L11.868 13.0971L11.8607 12.259L12.7885 11.9941L11.8562 11.741L11.8489 10.9029Z" fill="#FFDA44"/>
</g>
<defs>
<clipPath id="clip0_3_1222">
<rect width="28" height="24" fill="white"/>
</clipPath>
</defs>
</svg>
