<svg width="71" height="62" viewBox="0 0 71 62" fill="none" xmlns="http://www.w3.org/2000/svg">
<path d="M50.6756 52.4754C45.9188 57.5357 39.6249 60.7187 32.8662 61.482C26.1075 62.2452 19.3022 60.5416 13.6097 56.6613C7.91725 52.7811 3.68976 46.9643 1.64751 40.2019C-0.394733 33.4395 -0.12538 26.15 2.40968 19.5752C4.94474 13.0004 9.58867 7.54723 15.5503 4.14465C21.5119 0.742069 28.4223 -0.399373 35.1042 0.914798C41.7861 2.22897 47.8261 5.91745 52.1951 11.3518C56.5641 16.7862 58.9919 23.6302 59.0647 30.7179L51.7181 30.7879C51.6719 25.4715 49.859 20.3349 46.5882 16.2533C43.3174 12.1717 38.7912 9.39764 33.7808 8.40385C28.7704 7.41006 23.5858 8.25804 19.1106 10.8033C14.6353 13.3485 11.1463 17.4335 9.23814 22.3622C7.32995 27.2909 7.12061 32.7583 8.64581 37.8327C10.171 42.9071 13.3364 47.2745 17.6025 50.1908C21.8686 53.107 26.9715 54.3916 32.0417 53.8257C37.1118 53.2597 41.8354 50.8782 45.4077 47.087L50.6756 52.4754ZM40.6981 30.8928L70.0847 30.613L55.5373 46.0714L40.6981 30.8928Z" fill="#9BF193"/>
</svg>
