<svg width="16" height="4" viewBox="0 0 16 4" fill="none" xmlns="http://www.w3.org/2000/svg">
<path d="M2.63627 3.05005C2.14303 3.05005 1.66998 2.89776 1.32121 2.62668C0.97243 2.35561 0.776489 1.98795 0.776489 1.60458C0.776489 1.22122 0.97243 0.853564 1.32121 0.582486C1.66998 0.311409 2.14303 0.159119 2.63627 0.159119C3.12952 0.159119 3.60256 0.311409 3.95134 0.582486C4.30012 0.853564 4.49606 1.22122 4.49606 1.60458C4.49606 1.98795 4.30012 2.35561 3.95134 2.62668C3.60256 2.89776 3.12952 3.05005 2.63627 3.05005ZM8.21563 3.05005C7.72238 3.05005 7.24934 2.89776 6.90056 2.62668C6.55178 2.35561 6.35584 1.98795 6.35584 1.60458C6.35584 1.22122 6.55178 0.853564 6.90056 0.582486C7.24934 0.311409 7.72238 0.159119 8.21563 0.159119C8.70887 0.159119 9.18192 0.311409 9.53069 0.582486C9.87947 0.853564 10.0754 1.22122 10.0754 1.60458C10.0754 1.98795 9.87947 2.35561 9.53069 2.62668C9.18192 2.89776 8.70887 3.05005 8.21563 3.05005ZM13.795 3.05005C13.3017 3.05005 12.8287 2.89776 12.4799 2.62668C12.1311 2.35561 11.9352 1.98795 11.9352 1.60458C11.9352 1.22122 12.1311 0.853564 12.4799 0.582486C12.8287 0.311409 13.3017 0.159119 13.795 0.159119C14.2882 0.159119 14.7613 0.311409 15.11 0.582486C15.4588 0.853564 15.6548 1.22122 15.6548 1.60458C15.6548 1.98795 15.4588 2.35561 15.11 2.62668C14.7613 2.89776 14.2882 3.05005 13.795 3.05005Z" fill="black"/>
</svg>
