<svg width="34" height="31" viewBox="0 0 34 31" fill="none" xmlns="http://www.w3.org/2000/svg">
<path d="M16.8585 30.9854C12.3874 30.9854 8.09934 29.3539 4.93775 26.4499C1.77616 23.5458 0 19.607 0 15.5C0 11.393 1.77616 7.45422 4.93775 4.55014C8.09934 1.64605 12.3874 0.0145569 16.8585 0.0145569C21.3297 0.0145569 25.6177 1.64605 28.7793 4.55014C31.9409 7.45422 33.7171 11.393 33.7171 15.5C33.7171 19.607 31.9409 23.5458 28.7793 26.4499C25.6177 29.3539 21.3297 30.9854 16.8585 30.9854ZM13.2845 12.2171L7.3166 24.2648L20.4325 18.7829L26.4005 6.73524L13.2845 12.2171ZM16.8585 17.0485C16.4114 17.0485 15.9826 16.8854 15.6665 16.595C15.3503 16.3046 15.1727 15.9107 15.1727 15.5C15.1727 15.0893 15.3503 14.6954 15.6665 14.405C15.9826 14.1146 16.4114 13.9515 16.8585 13.9515C17.3057 13.9515 17.7345 14.1146 18.0506 14.405C18.3668 14.6954 18.5444 15.0893 18.5444 15.5C18.5444 15.9107 18.3668 16.3046 18.0506 16.595C17.7345 16.8854 17.3057 17.0485 16.8585 17.0485Z" fill="#3C9A03"/>
</svg>
