<svg width="16" height="4" viewBox="0 0 16 4" fill="none" xmlns="http://www.w3.org/2000/svg">
<path d="M2.63627 3.04596C2.14303 3.04596 1.66998 2.88781 1.32121 2.60631C0.97243 2.32481 0.776489 1.94301 0.776489 1.5449C0.776489 1.14679 0.97243 0.764993 1.32121 0.483489C1.66998 0.201986 2.14303 0.0438385 2.63627 0.0438385C3.12952 0.0438385 3.60256 0.201986 3.95134 0.483489C4.30012 0.764993 4.49606 1.14679 4.49606 1.5449C4.49606 1.94301 4.30012 2.32481 3.95134 2.60631C3.60256 2.88781 3.12952 3.04596 2.63627 3.04596ZM8.21563 3.04596C7.72238 3.04596 7.24934 2.88781 6.90056 2.60631C6.55178 2.32481 6.35584 1.94301 6.35584 1.5449C6.35584 1.14679 6.55178 0.764993 6.90056 0.483489C7.24934 0.201986 7.72238 0.0438385 8.21563 0.0438385C8.70887 0.0438385 9.18192 0.201986 9.53069 0.483489C9.87947 0.764993 10.0754 1.14679 10.0754 1.5449C10.0754 1.94301 9.87947 2.32481 9.53069 2.60631C9.18192 2.88781 8.70887 3.04596 8.21563 3.04596ZM13.795 3.04596C13.3017 3.04596 12.8287 2.88781 12.4799 2.60631C12.1311 2.32481 11.9352 1.94301 11.9352 1.5449C11.9352 1.14679 12.1311 0.764993 12.4799 0.483489C12.8287 0.201986 13.3017 0.0438385 13.795 0.0438385C14.2882 0.0438385 14.7613 0.201986 15.11 0.483489C15.4588 0.764993 15.6548 1.14679 15.6548 1.5449C15.6548 1.94301 15.4588 2.32481 15.11 2.60631C14.7613 2.88781 14.2882 3.04596 13.795 3.04596Z" fill="black"/>
</svg>
