<svg width="16" height="3" viewBox="0 0 16 3" fill="none" xmlns="http://www.w3.org/2000/svg">
<path d="M2.63627 2.97437C2.14303 2.97437 1.66998 2.82208 1.32121 2.551C0.97243 2.27992 0.776489 1.91226 0.776489 1.5289C0.776489 1.14554 0.97243 0.77788 1.32121 0.506803C1.66998 0.235725 2.14303 0.0834351 2.63627 0.0834351C3.12952 0.0834351 3.60256 0.235725 3.95134 0.506803C4.30012 0.77788 4.49606 1.14554 4.49606 1.5289C4.49606 1.91226 4.30012 2.27992 3.95134 2.551C3.60256 2.82208 3.12952 2.97437 2.63627 2.97437ZM8.21563 2.97437C7.72238 2.97437 7.24934 2.82208 6.90056 2.551C6.55178 2.27992 6.35584 1.91226 6.35584 1.5289C6.35584 1.14554 6.55178 0.77788 6.90056 0.506803C7.24934 0.235725 7.72238 0.0834351 8.21563 0.0834351C8.70887 0.0834351 9.18192 0.235725 9.53069 0.506803C9.87947 0.77788 10.0754 1.14554 10.0754 1.5289C10.0754 1.91226 9.87947 2.27992 9.53069 2.551C9.18192 2.82208 8.70887 2.97437 8.21563 2.97437ZM13.795 2.97437C13.3017 2.97437 12.8287 2.82208 12.4799 2.551C12.1311 2.27992 11.9352 1.91226 11.9352 1.5289C11.9352 1.14554 12.1311 0.77788 12.4799 0.506803C12.8287 0.235725 13.3017 0.0834351 13.795 0.0834351C14.2882 0.0834351 14.7613 0.235725 15.11 0.506803C15.4588 0.77788 15.6548 1.14554 15.6548 1.5289C15.6548 1.91226 15.4588 2.27992 15.11 2.551C14.7613 2.82208 14.2882 2.97437 13.795 2.97437Z" fill="black"/>
</svg>
