<svg width="16" height="4" viewBox="0 0 16 4" fill="none" xmlns="http://www.w3.org/2000/svg">
<path d="M2.63627 3.01116C2.14303 3.01116 1.66998 2.85887 1.32121 2.58779C0.97243 2.31671 0.776489 1.94905 0.776489 1.56569C0.776489 1.18233 0.97243 0.814669 1.32121 0.543591C1.66998 0.272514 2.14303 0.120224 2.63627 0.120224C3.12952 0.120224 3.60256 0.272514 3.95134 0.543591C4.30012 0.814669 4.49606 1.18233 4.49606 1.56569C4.49606 1.94905 4.30012 2.31671 3.95134 2.58779C3.60256 2.85887 3.12952 3.01116 2.63627 3.01116ZM8.21563 3.01116C7.72238 3.01116 7.24934 2.85887 6.90056 2.58779C6.55178 2.31671 6.35584 1.94905 6.35584 1.56569C6.35584 1.18233 6.55178 0.814669 6.90056 0.543591C7.24934 0.272514 7.72238 0.120224 8.21563 0.120224C8.70887 0.120224 9.18192 0.272514 9.53069 0.543591C9.87947 0.814669 10.0754 1.18233 10.0754 1.56569C10.0754 1.94905 9.87947 2.31671 9.53069 2.58779C9.18192 2.85887 8.70887 3.01116 8.21563 3.01116ZM13.795 3.01116C13.3017 3.01116 12.8287 2.85887 12.4799 2.58779C12.1311 2.31671 11.9352 1.94905 11.9352 1.56569C11.9352 1.18233 12.1311 0.814669 12.4799 0.543591C12.8287 0.272514 13.3017 0.120224 13.795 0.120224C14.2882 0.120224 14.7613 0.272514 15.11 0.543591C15.4588 0.814669 15.6548 1.18233 15.6548 1.56569C15.6548 1.94905 15.4588 2.31671 15.11 2.58779C14.7613 2.85887 14.2882 3.01116 13.795 3.01116Z" fill="black"/>
</svg>
